<?xml version="1.0" standalone="no"?>
<!DOCTYPE svg PUBLIC "-//W3C//DTD SVG 20010904//EN"
 "http://www.w3.org/TR/2001/REC-SVG-20010904/DTD/svg10.dtd">
<svg version="1.0" xmlns="http://www.w3.org/2000/svg"
 width="64.000000pt" height="64.000000pt" viewBox="0 0 64.000000 64.000000"
 preserveAspectRatio="xMidYMid meet">

<g transform="translate(0.000000,64.000000) scale(0.100000,-0.100000)"
fill="#000000" stroke="none">
<path d="M40 520 c0 -104 1 -112 25 -135 13 -14 29 -25 35 -25 6 0 10 -60 10
-175 0 -149 2 -175 15 -175 13 0 15 26 15 175 0 115 4 175 10 175 6 0 22 11
35 25 24 23 25 31 25 135 0 91 -3 110 -15 110 -12 0 -15 -18 -15 -101 0 -119
-8 -139 -55 -139 -47 0 -55 20 -55 139 0 83 -3 101 -15 101 -12 0 -15 -19 -15
-110z"/>
<path d="M110 530 c0 -82 3 -100 15 -100 12 0 15 18 15 100 0 82 -3 100 -15
100 -12 0 -15 -18 -15 -100z"/>
<path d="M295 608 c-14 -13 -30 -41 -35 -63 -14 -61 -13 -318 2 -333 7 -7 29
-12 50 -12 l38 0 0 -95 c0 -78 3 -95 15 -95 13 0 15 41 15 310 l0 310 -29 0
c-17 0 -42 -10 -56 -22z m55 -193 l0 -185 -30 0 -30 0 0 165 c0 152 2 167 20
185 11 11 25 20 30 20 6 0 10 -68 10 -185z"/>
<path d="M455 605 c-23 -22 -25 -32 -25 -110 0 -78 2 -88 25 -110 13 -14 29
-25 35 -25 6 0 10 -60 10 -175 0 -149 2 -175 15 -175 13 0 15 26 15 175 0 115
4 175 10 175 6 0 22 11 35 25 23 22 25 32 25 110 0 78 -2 88 -25 110 -16 17
-35 25 -60 25 -25 0 -44 -8 -60 -25z m105 -24 c13 -25 13 -147 0 -172 -15 -26
-75 -26 -90 0 -5 11 -10 50 -10 86 0 85 11 105 55 105 24 0 38 -6 45 -19z"/>
</g>
</svg>
